<svg width="1440" height="964" viewBox="0 0 1440 964" fill="none" xmlns="http://www.w3.org/2000/svg">
<g opacity="0.1">
<mask id="mask0_668:9613" style="mask-type:alpha" maskUnits="userSpaceOnUse" x="0" y="0" width="1440" height="964">
<rect width="1440" height="964" fill="white" fill-opacity="0.05"/>
</mask>
<g mask="url(#mask0_668:9613)">
<path d="M585.58 -367.55C616.534 -395.399 656.538 -398.522 702.454 -380.148C748.363 -361.775 800.108 -321.937 854.468 -264.03C963.183 -148.221 1082.28 39.7786 1185.99 272.524C1289.69 505.27 1358.34 738.656 1385.52 927.829C1399.1 1022.42 1402.31 1105.92 1394.37 1172.75C1386.42 1239.58 1367.32 1289.63 1336.37 1317.48C1305.41 1345.33 1265.41 1348.45 1219.49 1330.08C1173.58 1311.71 1121.84 1271.87 1067.48 1213.96C958.764 1098.15 839.663 910.153 735.96 677.407C632.258 444.662 563.604 211.275 536.432 22.103C522.845 -72.4862 519.633 -155.99 527.581 -222.817C535.53 -289.653 554.625 -339.701 585.58 -367.55Z" stroke="white"/>
<path d="M487.446 -367.55C518.4 -395.399 558.405 -398.522 604.32 -380.148C650.23 -361.775 701.975 -321.937 756.334 -264.03C865.05 -148.221 984.151 39.7786 1087.85 272.524C1191.56 505.27 1260.21 738.656 1287.38 927.829C1300.97 1022.42 1304.18 1105.92 1296.23 1172.75C1288.28 1239.58 1269.19 1289.63 1238.23 1317.48C1207.28 1345.33 1167.28 1348.45 1121.36 1330.08C1075.45 1311.71 1023.71 1271.87 969.346 1213.96C860.631 1098.15 741.53 910.153 637.827 677.407C534.124 444.662 465.471 211.275 438.298 22.103C424.711 -72.4862 421.5 -155.99 429.447 -222.817C437.396 -289.653 456.492 -339.701 487.446 -367.55Z" stroke="white"/>
<path d="M379.713 -367.55C410.667 -395.399 450.671 -398.522 496.587 -380.148C542.496 -361.775 594.242 -321.937 648.601 -264.03C757.317 -148.221 876.418 39.7786 980.12 272.524C1083.82 505.27 1152.48 738.656 1179.65 927.829C1193.24 1022.42 1196.45 1105.92 1188.5 1172.75C1180.55 1239.58 1161.46 1289.63 1130.5 1317.48C1099.55 1345.33 1059.54 1348.45 1013.63 1330.08C967.718 1311.71 915.973 1271.87 861.613 1213.96C752.898 1098.15 633.797 910.153 530.094 677.407C426.391 444.662 357.738 211.275 330.565 22.103C316.978 -72.4862 313.766 -155.99 321.714 -222.817C329.663 -289.653 348.759 -339.701 379.713 -367.55Z" stroke="white"/>
<path d="M243.18 -367.55C274.134 -395.399 314.138 -398.522 360.054 -380.148C405.963 -361.775 457.708 -321.937 512.068 -264.03C620.783 -148.221 739.884 39.7786 843.587 272.524C947.29 505.27 1015.94 738.656 1043.12 927.829C1056.7 1022.42 1059.91 1105.92 1051.97 1172.75C1044.02 1239.58 1024.92 1289.63 993.968 1317.48C963.014 1345.33 923.009 1348.45 877.094 1330.08C831.184 1311.71 779.439 1271.87 725.08 1213.96C616.364 1098.15 497.263 910.153 393.56 677.407C289.858 444.662 221.204 211.275 194.031 22.103C180.445 -72.4862 177.233 -155.99 185.181 -222.817C193.13 -289.653 212.225 -339.701 243.18 -367.55Z" stroke="white"/>
<path d="M106.646 -367.55C137.6 -395.399 177.605 -398.522 223.52 -380.148C269.43 -361.775 321.175 -321.937 375.534 -264.03C484.25 -148.221 603.351 39.7786 707.054 272.524C810.757 505.27 879.41 738.656 906.583 927.829C920.17 1022.42 923.381 1105.92 915.433 1172.75C907.484 1239.58 888.389 1289.63 857.435 1317.48C826.48 1345.33 786.476 1348.45 740.56 1330.08C694.651 1311.71 642.906 1271.87 588.546 1213.96C479.831 1098.15 360.73 910.153 257.027 677.407C153.324 444.662 84.6711 211.275 57.4982 22.103C43.9112 -72.4862 40.6997 -155.99 48.6474 -222.817C56.5963 -289.653 75.6921 -339.701 106.646 -367.55Z" stroke="white"/>
</g>
</g>
</svg>
